<?xml version="1.0" encoding="iso-8859-1"?>
<!-- Generator: Adobe Illustrator 19.0.0, SVG Export Plug-In . SVG Version: 6.00 Build 0)  -->
<svg version="1.1" id="Layer_1" xmlns="http://www.w3.org/2000/svg" xmlns:xlink="http://www.w3.org/1999/xlink" x="0px" y="0px"
	 viewBox="0 0 491.52 491.52" style="enable-background:new 0 0 491.52 491.52;" xml:space="preserve">
<circle style="fill:#E05B49;" cx="245.76" cy="245.76" r="245.76"/>
<path style="opacity:0.1;enable-background:new    ;" d="M363.162,134.185c-1.229-1.537-3.072-2.458-5.12-2.458H133.478
	c-3.789,0-6.861,3.226-6.861,7.167v181.811c0,2.407,1.126,4.506,2.867,5.786l0.154,0.154l160.721,160.761
	c109.253-20.04,193.201-112.273,200.571-225.454L363.213,134.236L363.162,134.185z"/>
<path style="fill:#64798A;" d="M364.898,138.898c0-3.952-3.069-7.156-6.856-7.156H133.478c-3.786,0-6.856,3.204-6.856,7.156V294.33
	h238.276V138.898z"/>
<rect x="140.216" y="145.93" style="fill:#FCD462;" width="211.098" height="134.195"/>
<rect x="140.216" y="273.715" style="fill:#F6C358;" width="211.098" height="6.41"/>
<path style="fill:#EBF0F3;" d="M126.622,294.33v26.372c0,3.952,3.07,7.156,6.856,7.156h224.563c3.787,0,6.856-3.204,6.856-7.156
	V294.33H126.622z"/>
<ellipse style="fill:#64798A;" cx="245.76" cy="311.096" rx="9.308" ry="9.713"/>
<rect x="211.763" y="327.834" style="fill:#E1E6E9;" width="67.968" height="20.393"/>
<polygon style="fill:#D5D6DB;" points="279.745,348.249 211.775,327.858 279.745,327.858 "/>
<polygon style="fill:#EBF0F3;" points="279.745,348.249 211.775,348.249 203.056,359.778 288.464,359.778 "/>
<g>
	<path style="fill:#E56353;" d="M200.762,239.421l9.603-9.603c1.5-1.5,1.5-3.93,0-5.43c-1.5-1.5-3.93-1.5-5.43,0l-9.603,9.603
		l-9.603-9.603c-1.5-1.5-3.93-1.5-5.43,0c-1.5,1.5-1.5,3.93,0,5.43l9.603,9.603l-9.603,9.603c-1.5,1.5-1.5,3.93,0,5.43
		c0.75,0.75,1.73,1.125,2.715,1.125c0.985,0,1.965-0.375,2.715-1.125l9.603-9.602l9.603,9.602c0.75,0.75,1.73,1.125,2.715,1.125
		c0.985,0,1.965-0.375,2.715-1.125c1.5-1.5,1.5-3.93,0-5.43L200.762,239.421z"/>
	<path style="fill:#E56353;" d="M318.357,239.421l9.603-9.603c1.5-1.5,1.5-3.93,0-5.43c-1.5-1.5-3.93-1.5-5.43,0l-9.603,9.603
		l-9.603-9.603c-1.5-1.5-3.93-1.5-5.43,0c-1.5,1.5-1.5,3.93,0,5.43l9.603,9.603l-9.603,9.603c-1.5,1.5-1.5,3.93,0,5.43
		c0.75,0.75,1.73,1.125,2.715,1.125c0.985,0,1.965-0.375,2.715-1.125l9.603-9.602l9.603,9.602c0.75,0.75,1.73,1.125,2.715,1.125
		s1.965-0.375,2.715-1.125c1.5-1.5,1.5-3.93,0-5.43L318.357,239.421z"/>
</g>
<path style="fill:#44C4A1;" d="M282.663,200.992c-9.455,0-17.145-7.69-17.145-17.145c0-9.45,7.69-17.14,17.145-17.14
	c9.455,0,17.145,7.69,17.145,17.14C299.808,193.301,292.117,200.992,282.663,200.992z M282.663,174.387
	c-5.22,0-9.465,4.245-9.465,9.46c0,5.22,4.245,9.465,9.465,9.465c5.22,0,9.465-4.245,9.465-9.465
	C292.128,178.632,287.883,174.387,282.663,174.387z"/>
<path style="fill:#64798A;" d="M216.298,167.631h10.531c2.12,0,3.84-1.72,3.84-3.84c0-2.12-1.72-3.84-3.84-3.84h-21.84
	c-2.12,0-3.84,1.72-3.84,3.84v21.84c0,2.12,1.72,3.84,3.84,3.84c2.12,0,3.84-1.72,3.84-3.84v-14.472
	c10.969,10.397,48.475,49.711,45.675,98.687c-0.12,2.12,1.5,3.935,3.615,4.055c0.075,0.005,0.15,0.005,0.225,0.005
	c2.02,0,3.71-1.58,3.83-3.62C265.027,220.353,230.188,181.175,216.298,167.631z"/>
<g>
</g>
<g>
</g>
<g>
</g>
<g>
</g>
<g>
</g>
<g>
</g>
<g>
</g>
<g>
</g>
<g>
</g>
<g>
</g>
<g>
</g>
<g>
</g>
<g>
</g>
<g>
</g>
<g>
</g>
</svg>
