<?xml version="1.0" standalone="no"?>
<!DOCTYPE svg PUBLIC "-//W3C//DTD SVG 20010904//EN"
 "http://www.w3.org/TR/2001/REC-SVG-20010904/DTD/svg10.dtd">
<svg version="1.0" xmlns="http://www.w3.org/2000/svg"
 width="500.000000pt" height="500.000000pt" viewBox="0 0 500.000000 500.000000"
 preserveAspectRatio="xMidYMid meet">
<metadata>
Created by potrace 1.11, written by Peter Selinger 2001-2013
</metadata>
<g transform="translate(0.000000,500.000000) scale(0.100000,-0.100000)"
fill="#000000" stroke="none">
<path d="M2066 3931 c-2 -3 -7 -28 -10 -55 -4 -27 -14 -86 -22 -133 -8 -46
-17 -98 -20 -116 -3 -17 -8 -46 -12 -64 l-7 -31 -60 54 c-170 153 -429 287
-620 319 -11 2 -33 7 -50 11 -16 4 -305 9 -641 11 l-612 4 0 -1355 0 -1356 21
-1 c127 -4 1117 0 1162 5 53 7 85 12 182 32 27 5 163 54 215 78 l38 16 -7 -32
c-4 -18 -7 -46 -8 -63 l0 -30 343 0 c264 0 346 3 354 12 6 7 8 13 6 13 -3 0
-1 24 4 53 9 59 27 176 34 226 2 19 6 46 8 60 3 14 8 46 11 71 4 25 9 52 10
61 2 9 6 40 10 69 4 29 9 62 11 74 2 11 6 38 9 61 3 22 8 51 10 65 3 14 7 48
10 75 3 28 8 57 10 65 2 8 7 35 10 60 8 55 14 97 20 130 2 14 7 45 10 70 3 25
10 68 15 95 5 28 12 74 15 104 4 30 9 63 11 75 2 11 6 38 10 61 3 22 7 41 8
42 3 3 99 -241 371 -942 103 -264 198 -507 211 -540 l25 -60 139 0 c129 0 140
1 149 20 6 11 83 198 172 415 89 217 169 413 179 435 9 22 75 183 146 357 71
174 130 315 132 314 3 -4 10 -39 17 -91 3 -22 8 -51 10 -65 6 -33 11 -65 30
-195 9 -60 18 -119 20 -130 2 -11 7 -40 10 -65 3 -25 7 -54 9 -66 2 -12 7 -45
11 -75 3 -30 9 -62 11 -72 3 -10 7 -35 10 -55 2 -20 8 -66 13 -102 10 -60 17
-107 26 -170 2 -14 16 -104 31 -200 29 -190 31 -205 33 -235 1 -20 8 -20 349
-20 l347 0 1 40 c0 22 -3 54 -7 70 -7 27 -14 69 -24 135 -2 14 -6 39 -9 55 -3
17 -14 86 -26 155 -25 152 -28 168 -34 200 -3 14 -8 41 -10 60 -3 19 -8 46
-10 60 -6 34 -36 207 -42 249 -3 18 -8 43 -10 55 -5 24 -33 189 -39 226 -2 14
-16 95 -30 180 -35 206 -32 189 -55 325 -11 66 -22 131 -25 145 -2 13 -7 42
-10 65 -3 22 -8 47 -10 55 -2 8 -6 33 -10 55 -3 22 -14 90 -25 150 -10 61 -21
124 -24 140 -8 47 -35 207 -40 235 -2 14 -5 32 -5 41 -1 15 -33 17 -353 15
l-352 -1 -194 -520 c-107 -286 -226 -607 -266 -712 -39 -106 -74 -193 -77
-193 -3 0 -36 82 -73 183 -37 100 -72 191 -77 202 -4 11 -49 130 -100 265 -50
135 -105 283 -123 330 -18 47 -64 167 -101 266 l-68 181 -349 0 c-192 0 -350
-3 -352 -6z m-1141 -605 c129 -5 151 -9 247 -42 237 -80 397 -263 459 -521 18
-75 20 -108 16 -223 -3 -74 -12 -157 -20 -185 -81 -283 -271 -460 -559 -519
-65 -13 -205 -21 -320 -17 l-28 1 0 754 0 755 23 3 c12 2 33 2 47 1 14 -1 75
-4 135 -7z"/>
</g>
</svg>
