<?xml version="1.0" encoding="utf-8"?>
<!-- Generator: Adobe Illustrator 22.0.1, SVG Export Plug-In . SVG Version: 6.00 Build 0)  -->
<svg version="1.2" baseProfile="tiny" id="WallsheavenLogo"
	 xmlns="http://www.w3.org/2000/svg" xmlns:xlink="http://www.w3.org/1999/xlink" x="0px" y="0px" viewBox="0 0 277 76"
	 xml:space="preserve">
<g>
	<path d="M93.8,26.6v0.9c-0.9,0-1.6,0.2-2.1,0.5c-0.5,0.3-1,0.9-1.5,1.7c-0.3,0.6-0.8,1.9-1.5,4.1l-9.2,26.7h-1l-7.5-21.2l-7.5,21.2
		h-0.9L52.7,33c-0.7-2.1-1.2-3.3-1.4-3.6c-0.3-0.6-0.8-1.1-1.3-1.4c-0.6-0.3-1.3-0.5-2.3-0.5v-0.9h12.3v0.9h-0.6
		c-0.9,0-1.5,0.2-2,0.6c-0.5,0.4-0.7,0.9-0.7,1.4c0,0.6,0.4,1.9,1.1,3.9l6.5,18.6l5.5-15.8l-1-2.8L68,31.3c-0.3-0.8-0.7-1.5-1.1-2.1
		c-0.2-0.3-0.5-0.6-0.8-0.8c-0.4-0.3-0.8-0.5-1.2-0.6c-0.3-0.1-0.8-0.1-1.5-0.1v-0.9h12.9v0.9h-0.9c-0.9,0-1.6,0.2-2,0.6
		c-0.4,0.4-0.6,0.9-0.6,1.6c0,0.8,0.4,2.3,1.1,4.3l6.3,18l6.3-18.2c0.7-2,1.1-3.4,1.1-4.2c0-0.4-0.1-0.7-0.4-1
		c-0.2-0.3-0.5-0.6-0.9-0.7c-0.6-0.2-1.4-0.3-2.4-0.3v-0.9H93.8z"/>
	<path d="M101.5,56.5c-2.3,1.8-3.7,2.8-4.3,3.1c-0.9,0.4-1.8,0.6-2.8,0.6c-1.5,0-2.8-0.5-3.8-1.6c-1-1.1-1.5-2.4-1.5-4.2
		c0-1.1,0.2-2,0.7-2.8c0.7-1.1,1.8-2.1,3.5-3.1c1.7-1,4.4-2.2,8.2-3.6v-0.9c0-2.2-0.4-3.8-1.1-4.6s-1.7-1.2-3.1-1.2
		c-1,0-1.8,0.3-2.4,0.8C94.3,39.6,94,40.2,94,41l0,1.4c0,0.7-0.2,1.3-0.6,1.7c-0.4,0.4-0.9,0.6-1.5,0.6c-0.6,0-1.1-0.2-1.5-0.6
		c-0.4-0.4-0.6-1-0.6-1.7c0-1.4,0.7-2.7,2.1-3.9c1.4-1.2,3.4-1.8,6-1.8c2,0,3.6,0.3,4.9,1c1,0.5,1.7,1.3,2.1,2.4
		c0.3,0.7,0.4,2.1,0.4,4.3V52c0,2.1,0,3.4,0.1,3.9c0.1,0.5,0.2,0.8,0.4,1c0.2,0.2,0.4,0.2,0.6,0.2c0.3,0,0.5-0.1,0.7-0.2
		c0.3-0.2,1-0.8,2-1.8v1.4c-1.8,2.4-3.6,3.7-5.2,3.7c-0.8,0-1.4-0.3-1.9-0.8C101.7,58.8,101.5,57.9,101.5,56.5z M101.5,54.9v-8.5
		c-2.5,1-4,1.7-4.8,2.1c-1.3,0.7-2.2,1.5-2.8,2.2c-0.6,0.8-0.8,1.6-0.8,2.6c0,1.2,0.3,2.1,1,2.9c0.7,0.8,1.5,1.2,2.4,1.2
		C97.8,57.4,99.5,56.6,101.5,54.9z"/>
	<path d="M115.4,25v29.7c0,1.4,0.1,2.3,0.3,2.8c0.2,0.5,0.5,0.8,0.9,1c0.4,0.2,1.2,0.4,2.4,0.4v0.9h-11v-0.9c1,0,1.7-0.1,2.1-0.3
		c0.4-0.2,0.7-0.6,0.9-1c0.2-0.5,0.3-1.4,0.3-2.8V34.4c0-2.5-0.1-4.1-0.2-4.7c-0.1-0.6-0.3-1-0.5-1.2c-0.3-0.2-0.6-0.3-1-0.3
		c-0.4,0-1,0.1-1.6,0.4l-0.4-0.9l6.7-2.7H115.4z"/>
	<path d="M126.5,25v29.7c0,1.4,0.1,2.3,0.3,2.8c0.2,0.5,0.5,0.8,0.9,1c0.4,0.2,1.2,0.4,2.4,0.4v0.9h-11v-0.9c1,0,1.7-0.1,2.1-0.3
		c0.4-0.2,0.7-0.6,0.9-1c0.2-0.5,0.3-1.4,0.3-2.8V34.4c0-2.5-0.1-4.1-0.2-4.7c-0.1-0.6-0.3-1-0.5-1.2c-0.3-0.2-0.6-0.3-1-0.3
		c-0.4,0-1,0.1-1.6,0.4l-0.4-0.9l6.7-2.7H126.5z"/>
	<path d="M144.1,36.7v7.6h-0.8c-0.6-2.4-1.4-4-2.4-4.9c-1-0.9-2.2-1.3-3.7-1.3c-1.1,0-2.1,0.3-2.8,0.9c-0.7,0.6-1,1.3-1,2
		c0,0.9,0.3,1.7,0.8,2.3c0.5,0.7,1.5,1.4,3.1,2.1l3.6,1.7c3.3,1.6,5,3.7,5,6.4c0,2-0.8,3.7-2.3,4.9c-1.5,1.2-3.3,1.9-5.2,1.9
		c-1.4,0-2.9-0.2-4.7-0.7c-0.5-0.2-1-0.2-1.3-0.2c-0.4,0-0.7,0.2-0.9,0.6h-0.8v-8h0.8c0.5,2.3,1.3,4,2.6,5.2
		c1.3,1.2,2.7,1.7,4.3,1.7c1.1,0,2-0.3,2.7-1c0.7-0.7,1.1-1.5,1.1-2.4c0-1.1-0.4-2.1-1.2-2.8c-0.8-0.8-2.4-1.7-4.7-2.9
		c-2.4-1.2-3.9-2.2-4.6-3.2c-0.7-0.9-1.1-2.1-1.1-3.5c0-1.8,0.6-3.4,1.9-4.6c1.3-1.2,2.9-1.9,4.9-1.9c0.9,0,1.9,0.2,3.2,0.6
		c0.8,0.2,1.4,0.4,1.7,0.4c0.3,0,0.5-0.1,0.6-0.2c0.1-0.1,0.3-0.4,0.5-0.8H144.1z"/>
	<path d="M154,42h15.4v-9.5c0-1.7-0.1-2.8-0.3-3.3c-0.2-0.4-0.5-0.8-1-1c-0.7-0.4-1.4-0.6-2.2-0.6h-1.2v-0.9h14.2v0.9h-1.2
		c-0.8,0-1.5,0.2-2.2,0.6c-0.5,0.3-0.9,0.7-1.1,1.2c-0.2,0.5-0.3,1.6-0.3,3.2v21.4c0,1.7,0.1,2.8,0.3,3.3c0.2,0.4,0.5,0.8,1,1
		c0.7,0.4,1.5,0.6,2.2,0.6h1.2v0.9h-14.2v-0.9h1.2c1.4,0,2.3-0.4,3-1.2c0.4-0.5,0.6-1.8,0.6-3.8V43.8H154v10.1
		c0,1.7,0.1,2.8,0.3,3.3c0.2,0.4,0.5,0.8,1,1c0.7,0.4,1.4,0.6,2.2,0.6h1.2v0.9h-14.2v-0.9h1.2c1.4,0,2.4-0.4,3-1.2
		c0.4-0.5,0.6-1.8,0.6-3.8V32.5c0-1.7-0.1-2.8-0.3-3.3c-0.2-0.4-0.5-0.8-1-1c-0.7-0.4-1.5-0.6-2.2-0.6h-1.2v-0.9h14.2v0.9h-1.2
		c-0.8,0-1.5,0.2-2.2,0.6c-0.5,0.3-0.9,0.7-1,1.2c-0.2,0.5-0.3,1.6-0.3,3.2V42z"/>
	<path d="M180.8,45.8c0,3.3,0.8,5.9,2.4,7.8c1.6,1.9,3.5,2.8,5.7,2.8c1.5,0,2.7-0.4,3.8-1.2c1.1-0.8,2-2.2,2.7-4.1l0.8,0.5
		c-0.3,2.2-1.3,4.3-3,6.1c-1.6,1.8-3.7,2.7-6.2,2.7c-2.7,0-5-1-6.9-3.1c-1.9-2.1-2.9-4.9-2.9-8.4c0-3.8,1-6.8,2.9-8.9
		c2-2.1,4.4-3.2,7.4-3.2c2.5,0,4.6,0.8,6.2,2.5s2.4,3.9,2.4,6.6H180.8z M180.8,44.4h10.4c-0.1-1.4-0.3-2.4-0.5-3
		c-0.4-0.9-1-1.6-1.8-2.1c-0.8-0.5-1.6-0.8-2.5-0.8c-1.4,0-2.6,0.5-3.6,1.6C181.6,41.1,181,42.5,180.8,44.4z"/>
	<path d="M208.8,56.5c-2.3,1.8-3.7,2.8-4.3,3.1c-0.9,0.4-1.8,0.6-2.8,0.6c-1.5,0-2.8-0.5-3.8-1.6c-1-1.1-1.5-2.4-1.5-4.2
		c0-1.1,0.2-2,0.7-2.8c0.7-1.1,1.8-2.1,3.5-3.1c1.7-1,4.4-2.2,8.2-3.6v-0.9c0-2.2-0.4-3.8-1.1-4.6c-0.7-0.8-1.7-1.2-3.1-1.2
		c-1,0-1.8,0.3-2.4,0.8c-0.6,0.6-0.9,1.2-0.9,1.9l0,1.4c0,0.7-0.2,1.3-0.6,1.7c-0.4,0.4-0.9,0.6-1.5,0.6c-0.6,0-1.1-0.2-1.5-0.6
		c-0.4-0.4-0.6-1-0.6-1.7c0-1.4,0.7-2.7,2.1-3.9c1.4-1.2,3.4-1.8,6-1.8c2,0,3.6,0.3,4.9,1c1,0.5,1.7,1.3,2.1,2.4
		c0.3,0.7,0.4,2.1,0.4,4.3V52c0,2.1,0,3.4,0.1,3.9c0.1,0.5,0.2,0.8,0.4,1c0.2,0.2,0.4,0.2,0.6,0.2c0.3,0,0.5-0.1,0.7-0.2
		c0.3-0.2,1-0.8,2-1.8v1.4c-1.8,2.4-3.6,3.7-5.2,3.7c-0.8,0-1.4-0.3-1.9-0.8C209.1,58.8,208.8,57.9,208.8,56.5z M208.8,54.9v-8.5
		c-2.5,1-4,1.7-4.8,2.1c-1.3,0.7-2.2,1.5-2.8,2.2c-0.6,0.8-0.8,1.6-0.8,2.6c0,1.2,0.3,2.1,1,2.9c0.7,0.8,1.5,1.2,2.4,1.2
		C205.2,57.4,206.8,56.6,208.8,54.9z"/>
	<path d="M213,37.4h10.5v0.9h-0.7c-0.6,0-1.1,0.2-1.5,0.5c-0.3,0.3-0.5,0.7-0.5,1.2c0,0.6,0.2,1.2,0.5,2l5.2,12.4l5.2-12.8
		c0.4-0.9,0.6-1.6,0.6-2.1c0-0.2-0.1-0.4-0.2-0.6c-0.2-0.2-0.4-0.4-0.7-0.5c-0.3-0.1-0.8-0.1-1.7-0.1v-0.9h7.3v0.9
		c-0.8,0.1-1.4,0.2-1.8,0.5c-0.6,0.5-1.1,1.3-1.5,2.4l-7.9,19.2h-1l-8-18.9c-0.4-0.9-0.7-1.5-1-1.9c-0.3-0.4-0.7-0.7-1.2-1
		c-0.3-0.1-0.8-0.3-1.6-0.4V37.4z"/>
	<path d="M238.4,45.8c0,3.3,0.8,5.9,2.4,7.8c1.6,1.9,3.5,2.8,5.7,2.8c1.5,0,2.7-0.4,3.8-1.2c1.1-0.8,2-2.2,2.7-4.1l0.8,0.5
		c-0.3,2.2-1.3,4.3-3,6.1c-1.6,1.8-3.7,2.7-6.2,2.7c-2.7,0-5-1-6.9-3.1c-1.9-2.1-2.9-4.9-2.9-8.4c0-3.8,1-6.8,2.9-8.9
		c2-2.1,4.4-3.2,7.4-3.2c2.5,0,4.6,0.8,6.2,2.5s2.4,3.9,2.4,6.6H238.4z M238.4,44.4h10.4c-0.1-1.4-0.3-2.4-0.5-3
		c-0.4-0.9-1-1.6-1.8-2.1c-0.8-0.5-1.6-0.8-2.5-0.8c-1.4,0-2.6,0.5-3.6,1.6C239.2,41.1,238.6,42.5,238.4,44.4z"/>
	<path d="M260.3,41.5c2.6-3.2,5.1-4.7,7.5-4.7c1.2,0,2.3,0.3,3.1,0.9s1.6,1.6,2.1,3c0.4,1,0.5,2.5,0.5,4.5v9.5
		c0,1.4,0.1,2.4,0.3,2.9c0.2,0.4,0.5,0.7,0.9,1c0.4,0.2,1.1,0.3,2.2,0.3v0.9H266v-0.9h0.5c1,0,1.8-0.2,2.2-0.5
		c0.4-0.3,0.7-0.8,0.9-1.4c0.1-0.2,0.1-1,0.1-2.3v-9.2c0-2-0.3-3.5-0.8-4.4c-0.5-0.9-1.4-1.4-2.7-1.4c-1.9,0-3.9,1.1-5.8,3.2v11.8
		c0,1.5,0.1,2.5,0.3,2.8c0.2,0.5,0.5,0.8,0.9,1c0.4,0.2,1.2,0.3,2.4,0.3v0.9h-11.1v-0.9h0.5c1.1,0,1.9-0.3,2.3-0.9
		c0.4-0.6,0.6-1.7,0.6-3.3v-8.3c0-2.7-0.1-4.3-0.2-4.9c-0.1-0.6-0.3-1-0.6-1.2c-0.3-0.2-0.6-0.3-1-0.3c-0.5,0-1,0.1-1.6,0.4
		l-0.4-0.9l6.7-2.7h1V41.5z"/>
</g>
<g>
	<path fill-rule="evenodd" fill="#000001" d="M23.4,25.5c12.8,0,23.2,10.4,23.2,23.2c0,12.8-10.4,23.2-23.2,23.2V69
		c11.2,0,20.4-9.1,20.4-20.4c0-11.2-9.1-20.4-20.4-20.4V25.5z M23.4,25.5L23.4,25.5v2.8l0,0C12.2,28.3,3,37.4,3,48.7
		C3,59.9,12.2,69,23.4,69l0,0v2.8l0,0c-12.8,0-23.2-10.4-23.2-23.2C0.2,35.9,10.6,25.5,23.4,25.5z"/>
	<path fill-rule="evenodd" fill="#FFFFFF" d="M45.1,20.2c1-7.1-2.2-13.2-7.3-17.8L27.5-6.9L34,5.3c1.7,3.3,2.2,6.8,1.6,10.4
		c-0.4,2.1-1.2,4.1-2.2,5.9c-1.7,3.2-4.3,6.5-6.7,9.3c-3.1,3.8-6.3,7.4-9.4,11.2c-6.2,7.6-15.5,19.5-13.7,30
		c0.8,4.6,1.3,4.4,3.9,11.4c0-13.3,6.3-13.1,14.1-17.2c6-3.1,12.8-6.1,16.9-9.2c2.9-2.2,5.4-4.7,7.1-7.6c2.1-3.7,2.9-7.6,1.9-11.8
		l-0.8-3.4c0.9-3.3,0.9-6.8-0.3-10.4L45.1,20.2z"/>
	<path fill-rule="evenodd" fill="#F48020" d="M7.3,74.3C10.7,57.4,20.8,53,31.7,42.4c7.3-7.1,11.6-13.3,12.9-18.6
		c2.2,6,0.3,12.7-5.6,20C29.6,55.3,13.9,59.9,7.3,74.3z"/>
	<path fill-rule="evenodd" fill="#F48020" d="M5.7,74.6c-6-16.5,22.5-39.1,29.9-52.9c1.2-2.3,2.1-4.6,2.5-6.8
		c0.8-4.4,0.2-8.5-1.9-12.4c5.3,4.9,7.3,10.1,6.9,15.4c-0.6,7.4-7,15.4-11.8,20.9c-2.6,3-5.4,5.6-8.2,8.2
		C14.7,54.8,7.6,62.7,5.7,74.6z"/>
	<path fill-rule="evenodd" fill="#F48020" d="M11.3,69.7c10.1-4.9,26.7-10.8,32.5-20.8c2.1-3.6,2.7-7.3,1.8-11.1
		c-0.9,2.6-2.2,5.1-4.9,8.1C33.6,53.9,15.1,65.7,11.3,69.7z"/>
</g>
<g>
	<path fill="#FD8204" d="M179.5,30.4c0.2,0,0.3,0.1,0.4,0.2s0.2,0.2,0.2,0.4s-0.1,0.3-0.2,0.4c-0.1,0.1-0.2,0.2-0.4,0.2
		s-0.3-0.1-0.4-0.2c-0.1-0.1-0.2-0.2-0.2-0.4c0-0.2,0.1-0.3,0.2-0.4C179.3,30.5,179.4,30.4,179.5,30.4z"/>
	<path fill="#FD8204" d="M184.8,29.6c-0.1,0.6-0.4,1-0.7,1.4s-0.7,0.5-1.2,0.5c-0.5,0-1-0.2-1.3-0.6s-0.6-1-0.6-1.7
		c0-0.7,0.2-1.3,0.6-1.7c0.4-0.4,0.9-0.7,1.5-0.7c0.4,0,0.8,0.1,1.1,0.3s0.4,0.5,0.4,0.7c0,0.1,0,0.2-0.1,0.3
		c-0.1,0.1-0.2,0.1-0.3,0.1c-0.2,0-0.3-0.1-0.4-0.2c-0.1-0.1-0.1-0.2-0.1-0.4c0-0.2-0.1-0.3-0.2-0.4c-0.1-0.1-0.3-0.1-0.5-0.1
		c-0.3,0-0.6,0.1-0.8,0.4c-0.3,0.3-0.4,0.7-0.4,1.3c0,0.5,0.1,1,0.4,1.4c0.3,0.4,0.6,0.6,1.1,0.6c0.3,0,0.6-0.1,0.9-0.3
		c0.2-0.1,0.4-0.4,0.5-0.8L184.8,29.6z"/>
	<path fill="#FD8204" d="M187.7,26.7c0.7,0,1.2,0.3,1.6,0.8c0.3,0.4,0.5,0.9,0.5,1.5c0,0.4-0.1,0.8-0.3,1.2s-0.5,0.7-0.8,0.9
		c-0.3,0.2-0.7,0.3-1.1,0.3c-0.7,0-1.2-0.3-1.6-0.8c-0.3-0.5-0.5-1-0.5-1.5c0-0.4,0.1-0.8,0.3-1.2c0.2-0.4,0.5-0.7,0.8-0.9
		S187.3,26.7,187.7,26.7z M187.5,27.1c-0.2,0-0.3,0.1-0.5,0.2c-0.2,0.1-0.3,0.3-0.4,0.5s-0.2,0.6-0.2,1c0,0.7,0.1,1.2,0.4,1.7
		c0.3,0.5,0.6,0.7,1,0.7c0.3,0,0.6-0.1,0.8-0.4s0.3-0.7,0.3-1.3c0-0.8-0.2-1.4-0.5-1.9C188.2,27.2,187.9,27.1,187.5,27.1z"/>
	<path fill="#FD8204" d="M191.8,27.7c0.3-0.3,0.5-0.5,0.6-0.6c0.1-0.1,0.3-0.2,0.5-0.3s0.3-0.1,0.5-0.1c0.3,0,0.5,0.1,0.7,0.2
		s0.3,0.4,0.4,0.7c0.3-0.4,0.6-0.6,0.8-0.8s0.5-0.2,0.7-0.2c0.2,0,0.4,0.1,0.6,0.2c0.2,0.1,0.3,0.3,0.4,0.6c0.1,0.2,0.1,0.5,0.1,0.9
		v1.9c0,0.3,0,0.5,0.1,0.6c0,0.1,0.1,0.1,0.2,0.2s0.2,0.1,0.4,0.1v0.2h-2.2v-0.2h0.1c0.2,0,0.3,0,0.4-0.1c0.1-0.1,0.1-0.1,0.2-0.2
		c0-0.1,0-0.2,0-0.5v-1.9c0-0.4,0-0.6-0.1-0.8c-0.1-0.2-0.3-0.3-0.6-0.3c-0.2,0-0.3,0-0.5,0.1c-0.2,0.1-0.4,0.2-0.6,0.5l0,0.1l0,0.2
		v2.1c0,0.3,0,0.5,0.1,0.6c0,0.1,0.1,0.1,0.2,0.2s0.3,0.1,0.5,0.1v0.2H193v-0.2c0.2,0,0.4,0,0.5-0.1c0.1-0.1,0.2-0.1,0.2-0.3
		c0-0.1,0-0.2,0-0.5v-1.9c0-0.4-0.1-0.6-0.2-0.8c-0.1-0.2-0.3-0.3-0.6-0.3c-0.2,0-0.3,0-0.5,0.1c-0.3,0.1-0.5,0.3-0.6,0.5v2.4
		c0,0.3,0,0.5,0.1,0.6c0,0.1,0.1,0.2,0.2,0.2c0.1,0,0.2,0.1,0.5,0.1v0.2h-2.2v-0.2c0.2,0,0.3,0,0.4-0.1s0.1-0.1,0.2-0.2
		s0.1-0.3,0.1-0.6v-1.7c0-0.5,0-0.8,0-1c0-0.1-0.1-0.2-0.1-0.2s-0.1-0.1-0.2-0.1c-0.1,0-0.2,0-0.3,0.1l-0.1-0.2l1.3-0.5h0.2V27.7z"
		/>
</g>
<g>
	<path d="M54,71.4h-1.4l-2.5-3.2h-1.2v3.2h-1.1v-8h2.1c0.5,0,0.8,0,1.2,0.1c0.3,0,0.6,0.2,0.9,0.3c0.3,0.2,0.5,0.4,0.7,0.7
		c0.2,0.3,0.2,0.6,0.2,1.1c0,0.6-0.1,1.1-0.4,1.5c-0.3,0.4-0.7,0.7-1.2,0.9L54,71.4z M51.7,65.6c0-0.2,0-0.4-0.1-0.6
		s-0.2-0.3-0.4-0.4c-0.2-0.1-0.3-0.2-0.5-0.2s-0.4-0.1-0.7-0.1h-1.1v3h0.9c0.3,0,0.6,0,0.8-0.1s0.5-0.2,0.6-0.3
		c0.2-0.2,0.3-0.3,0.3-0.5C51.7,66.1,51.7,65.9,51.7,65.6z"/>
	<path d="M57,71.5c-1,0-1.7-0.3-2.2-0.8c-0.5-0.5-0.8-1.3-0.8-2.3c0-1,0.3-1.8,0.8-2.3s1.2-0.9,2-0.9c0.4,0,0.7,0.1,1,0.2
		s0.5,0.3,0.8,0.5s0.4,0.5,0.5,0.8s0.2,0.7,0.2,1.2v0.5H55c0,0.7,0.2,1.2,0.5,1.6c0.4,0.4,0.8,0.6,1.5,0.6c0.2,0,0.4,0,0.7-0.1
		c0.2,0,0.4-0.1,0.6-0.2c0.2-0.1,0.3-0.2,0.5-0.2s0.2-0.1,0.3-0.2H59V71c-0.1,0-0.3,0.1-0.4,0.2c-0.2,0.1-0.3,0.1-0.5,0.2
		c-0.2,0.1-0.4,0.1-0.5,0.1C57.4,71.5,57.2,71.5,57,71.5z M58.1,67.7c0-0.3,0-0.5-0.1-0.7s-0.1-0.4-0.2-0.5
		c-0.1-0.2-0.3-0.3-0.5-0.3c-0.2-0.1-0.4-0.1-0.7-0.1c-0.3,0-0.5,0-0.7,0.1c-0.2,0.1-0.4,0.2-0.5,0.4c-0.2,0.2-0.3,0.3-0.3,0.5
		S55,67.4,55,67.7H58.1z"/>
	<path d="M64.9,71.4h-1v-3.4c0-0.3,0-0.5,0-0.8c0-0.2-0.1-0.4-0.2-0.6c-0.1-0.2-0.2-0.3-0.3-0.3s-0.3-0.1-0.6-0.1
		c-0.3,0-0.5,0.1-0.8,0.2c-0.3,0.1-0.5,0.3-0.8,0.5v4.5h-1v-6h1V66c0.3-0.3,0.6-0.5,0.9-0.6s0.6-0.2,0.9-0.2c0.6,0,1.1,0.2,1.4,0.6
		s0.5,1,0.5,1.7V71.4z"/>
	<path d="M71.2,68.4c0,1-0.2,1.8-0.7,2.3s-1.1,0.8-1.9,0.8c-0.8,0-1.5-0.3-2-0.9c-0.5-0.6-0.7-1.3-0.7-2.3c0-1,0.2-1.8,0.7-2.3
		c0.5-0.6,1.1-0.8,1.9-0.8c0.8,0,1.5,0.3,1.9,0.8C71,66.6,71.2,67.4,71.2,68.4z M70.2,68.4c0-0.8-0.1-1.4-0.4-1.7s-0.7-0.6-1.2-0.6
		c-0.5,0-0.9,0.2-1.2,0.6c-0.3,0.4-0.4,1-0.4,1.7c0,0.8,0.1,1.3,0.4,1.7c0.3,0.4,0.7,0.6,1.2,0.6c0.5,0,0.9-0.2,1.2-0.6
		C70,69.7,70.2,69.1,70.2,68.4z"/>
	<path d="M76.9,65.4l-2.3,6h-0.9l-2.2-6h1.1l1.6,4.6l1.6-4.6H76.9z"/>
	<path d="M80.8,70.7c-0.1,0.1-0.2,0.1-0.3,0.3c-0.1,0.1-0.3,0.2-0.4,0.3c-0.2,0.1-0.4,0.2-0.5,0.2c-0.2,0-0.4,0.1-0.7,0.1
		c-0.2,0-0.5,0-0.7-0.1c-0.2-0.1-0.4-0.2-0.6-0.4c-0.2-0.2-0.3-0.4-0.4-0.6c-0.1-0.2-0.1-0.5-0.1-0.8c0-0.4,0.1-0.8,0.3-1.1
		s0.5-0.5,0.8-0.7c0.3-0.2,0.7-0.3,1.2-0.3c0.5-0.1,1-0.1,1.5-0.1v-0.2c0-0.2,0-0.4-0.1-0.6c-0.1-0.1-0.2-0.3-0.3-0.3
		c-0.1-0.1-0.3-0.1-0.5-0.2c-0.2,0-0.4,0-0.6,0c-0.2,0-0.5,0-0.8,0.1c-0.3,0.1-0.6,0.2-0.9,0.3h-0.1v-1c0.2-0.1,0.5-0.1,0.8-0.2
		s0.7-0.1,1-0.1c0.4,0,0.8,0,1,0.1s0.5,0.2,0.8,0.3c0.2,0.2,0.4,0.4,0.5,0.6s0.2,0.6,0.2,1v4.1h-1V70.7z M80.8,69.9v-1.7
		c-0.2,0-0.5,0.1-0.9,0.1c-0.4,0-0.7,0.1-0.9,0.2c-0.3,0.1-0.5,0.2-0.7,0.4s-0.3,0.4-0.3,0.7c0,0.3,0.1,0.6,0.3,0.8
		c0.2,0.2,0.5,0.3,0.8,0.3c0.3,0,0.6-0.1,0.9-0.2S80.6,70.1,80.8,69.9z"/>
	<path d="M85,71.5c-0.6,0-1-0.2-1.3-0.5s-0.5-0.8-0.5-1.5v-3.3h-0.7v-0.8h0.7v-1.7h1v1.7h1.9v0.8h-1.9v2.9c0,0.3,0,0.5,0,0.7
		c0,0.2,0.1,0.3,0.1,0.5c0.1,0.1,0.2,0.2,0.3,0.3s0.3,0.1,0.6,0.1c0.2,0,0.3,0,0.5-0.1c0.2,0,0.3-0.1,0.3-0.1h0.1v0.9
		c-0.2,0.1-0.4,0.1-0.6,0.1C85.4,71.5,85.2,71.5,85,71.5z"/>
	<path d="M88,64.4h-1.1v-1H88V64.4z M87.9,71.4h-1v-6h1V71.4z"/>
	<path d="M94.4,68.4c0,1-0.2,1.8-0.7,2.3s-1.1,0.8-1.9,0.8c-0.8,0-1.5-0.3-2-0.9c-0.5-0.6-0.7-1.3-0.7-2.3c0-1,0.2-1.8,0.7-2.3
		c0.5-0.6,1.1-0.8,1.9-0.8c0.8,0,1.5,0.3,1.9,0.8C94.1,66.6,94.4,67.4,94.4,68.4z M93.3,68.4c0-0.8-0.1-1.4-0.4-1.7
		s-0.7-0.6-1.2-0.6c-0.5,0-0.9,0.2-1.2,0.6c-0.3,0.4-0.4,1-0.4,1.7c0,0.8,0.1,1.3,0.4,1.7c0.3,0.4,0.7,0.6,1.2,0.6
		c0.5,0,0.9-0.2,1.2-0.6C93.2,69.7,93.3,69.1,93.3,68.4z"/>
	<path d="M100.1,71.4h-1v-3.4c0-0.3,0-0.5,0-0.8c0-0.2-0.1-0.4-0.2-0.6c-0.1-0.2-0.2-0.3-0.3-0.3s-0.3-0.1-0.6-0.1
		c-0.3,0-0.5,0.1-0.8,0.2c-0.3,0.1-0.5,0.3-0.8,0.5v4.5h-1v-6h1V66c0.3-0.3,0.6-0.5,0.9-0.6s0.6-0.2,0.9-0.2c0.6,0,1.1,0.2,1.4,0.6
		s0.5,1,0.5,1.7V71.4z"/>
	<path d="M109.7,65.4l-3.2,8.2h-1.1l1.1-2.5l-2.2-5.7h1.1l1.6,4.4l1.6-4.4H109.7z"/>
	<path d="M115.3,68.4c0,1-0.2,1.8-0.7,2.3s-1.1,0.8-1.9,0.8c-0.8,0-1.5-0.3-2-0.9c-0.5-0.6-0.7-1.3-0.7-2.3c0-1,0.2-1.8,0.7-2.3
		c0.5-0.6,1.1-0.8,1.9-0.8c0.8,0,1.5,0.3,1.9,0.8C115.1,66.6,115.3,67.4,115.3,68.4z M114.3,68.4c0-0.8-0.1-1.4-0.4-1.7
		s-0.7-0.6-1.2-0.6c-0.5,0-0.9,0.2-1.2,0.6c-0.3,0.4-0.4,1-0.4,1.7c0,0.8,0.1,1.3,0.4,1.7c0.3,0.4,0.7,0.6,1.2,0.6
		c0.5,0,0.9-0.2,1.2-0.6C114.1,69.7,114.3,69.1,114.3,68.4z"/>
	<path d="M121,71.4h-1v-0.7c-0.3,0.3-0.6,0.5-0.9,0.6s-0.6,0.2-0.9,0.2c-0.3,0-0.5,0-0.7-0.1c-0.2-0.1-0.4-0.2-0.6-0.4
		c-0.2-0.2-0.3-0.4-0.4-0.7c-0.1-0.3-0.1-0.6-0.1-1v-3.9h1v3.4c0,0.3,0,0.6,0,0.8c0,0.2,0.1,0.4,0.2,0.6c0.1,0.2,0.2,0.3,0.3,0.3
		c0.1,0.1,0.3,0.1,0.6,0.1c0.2,0,0.5-0.1,0.8-0.2c0.3-0.1,0.5-0.3,0.8-0.5v-4.5h1V71.4z"/>
	<path d="M125.6,66.4L125.6,66.4c-0.1,0-0.2,0-0.3,0c-0.1,0-0.2,0-0.3,0c-0.3,0-0.5,0.1-0.8,0.2c-0.3,0.1-0.5,0.3-0.8,0.5v4.3h-1v-6
		h1v0.9c0.4-0.3,0.7-0.6,1-0.7c0.3-0.1,0.5-0.2,0.8-0.2c0.1,0,0.2,0,0.2,0c0.1,0,0.1,0,0.2,0V66.4z"/>
	<path d="M134.6,71.4h-1v-3.4c0-0.3,0-0.5,0-0.8c0-0.2-0.1-0.4-0.2-0.6c-0.1-0.2-0.2-0.3-0.3-0.3s-0.3-0.1-0.6-0.1
		c-0.3,0-0.5,0.1-0.8,0.2c-0.3,0.1-0.5,0.3-0.8,0.5v4.5h-1V63h1v3c0.3-0.3,0.6-0.5,0.9-0.6s0.6-0.2,0.9-0.2c0.6,0,1.1,0.2,1.4,0.6
		s0.5,1,0.5,1.7V71.4z"/>
	<path d="M140.9,68.4c0,1-0.2,1.8-0.7,2.3c-0.5,0.5-1.1,0.8-1.9,0.8c-0.8,0-1.5-0.3-2-0.9c-0.5-0.6-0.7-1.3-0.7-2.3
		c0-1,0.2-1.8,0.7-2.3c0.5-0.6,1.1-0.8,1.9-0.8c0.8,0,1.5,0.3,1.9,0.8C140.7,66.6,140.9,67.4,140.9,68.4z M139.9,68.4
		c0-0.8-0.1-1.4-0.4-1.7s-0.7-0.6-1.2-0.6c-0.5,0-0.9,0.2-1.2,0.6c-0.3,0.4-0.4,1-0.4,1.7c0,0.8,0.1,1.3,0.4,1.7
		c0.3,0.4,0.7,0.6,1.2,0.6c0.5,0,0.9-0.2,1.2-0.6C139.8,69.7,139.9,69.1,139.9,68.4z"/>
	<path d="M148.8,71.4v-3.5c0-0.3,0-0.5,0-0.8s-0.1-0.4-0.1-0.5c-0.1-0.1-0.2-0.2-0.3-0.3s-0.3-0.1-0.5-0.1c-0.2,0-0.4,0.1-0.7,0.2
		s-0.5,0.3-0.7,0.6c0,0.1,0,0.1,0,0.2c0,0.1,0,0.2,0,0.3v3.9h-1v-3.5c0-0.3,0-0.5,0-0.8s-0.1-0.4-0.1-0.5c-0.1-0.1-0.2-0.2-0.3-0.3
		s-0.3-0.1-0.5-0.1c-0.2,0-0.4,0.1-0.7,0.2c-0.2,0.1-0.5,0.3-0.7,0.5v4.5h-1v-6h1V66c0.3-0.3,0.5-0.5,0.8-0.6
		c0.3-0.1,0.5-0.2,0.9-0.2c0.4,0,0.7,0.1,0.9,0.2c0.3,0.2,0.5,0.4,0.6,0.8c0.3-0.3,0.6-0.6,0.9-0.8c0.3-0.2,0.6-0.3,0.9-0.3
		c0.3,0,0.5,0,0.7,0.1c0.2,0.1,0.4,0.2,0.6,0.4c0.2,0.2,0.3,0.4,0.4,0.7s0.1,0.6,0.1,1v3.9H148.8z"/>
	<path d="M153.8,71.5c-1,0-1.7-0.3-2.2-0.8s-0.8-1.3-0.8-2.3c0-1,0.3-1.8,0.8-2.3s1.2-0.9,2-0.9c0.4,0,0.7,0.1,1,0.2
		s0.5,0.3,0.8,0.5s0.4,0.5,0.5,0.8s0.2,0.7,0.2,1.2v0.5h-4.2c0,0.7,0.2,1.2,0.5,1.6c0.4,0.4,0.8,0.6,1.5,0.6c0.2,0,0.4,0,0.7-0.1
		s0.4-0.1,0.6-0.2c0.2-0.1,0.3-0.2,0.5-0.2s0.2-0.1,0.3-0.2h0.1V71c-0.1,0-0.3,0.1-0.4,0.2c-0.2,0.1-0.3,0.1-0.5,0.2
		c-0.2,0.1-0.4,0.1-0.5,0.1S154.1,71.5,153.8,71.5z M155,67.7c0-0.3,0-0.5-0.1-0.7c-0.1-0.2-0.1-0.4-0.2-0.5
		c-0.1-0.2-0.3-0.3-0.5-0.3c-0.2-0.1-0.4-0.1-0.7-0.1c-0.3,0-0.5,0-0.7,0.1c-0.2,0.1-0.4,0.2-0.5,0.4c-0.2,0.2-0.3,0.3-0.3,0.5
		s-0.1,0.4-0.2,0.7H155z"/>
	<path d="M158.6,71.4h-1.3v-1.5h1.3V71.4z"/>
	<path d="M172.8,63.4l-2,8h-1.2l-1.6-6.6l-1.6,6.6h-1.2l-2-8h1.1l1.6,6.7l1.6-6.7h1.1l1.6,6.7l1.6-6.7H172.8z"/>
	<path d="M175.9,71.5c-1,0-1.7-0.3-2.2-0.8s-0.8-1.3-0.8-2.3c0-1,0.3-1.8,0.8-2.3s1.2-0.9,2-0.9c0.4,0,0.7,0.1,1,0.2
		s0.5,0.3,0.8,0.5s0.4,0.5,0.5,0.8s0.2,0.7,0.2,1.2v0.5h-4.2c0,0.7,0.2,1.2,0.5,1.6c0.4,0.4,0.8,0.6,1.5,0.6c0.2,0,0.4,0,0.7-0.1
		s0.4-0.1,0.6-0.2c0.2-0.1,0.3-0.2,0.5-0.2s0.2-0.1,0.3-0.2h0.1V71c-0.1,0-0.3,0.1-0.4,0.2c-0.2,0.1-0.3,0.1-0.5,0.2
		c-0.2,0.1-0.4,0.1-0.5,0.1S176.1,71.5,175.9,71.5z M177.1,67.7c0-0.3,0-0.5-0.1-0.7c-0.1-0.2-0.1-0.4-0.2-0.5
		c-0.1-0.2-0.3-0.3-0.5-0.3c-0.2-0.1-0.4-0.1-0.7-0.1c-0.3,0-0.5,0-0.7,0.1c-0.2,0.1-0.4,0.2-0.5,0.4c-0.2,0.2-0.3,0.3-0.3,0.5
		s-0.1,0.4-0.2,0.7H177.1z"/>
	<path d="M187.5,68.2c0,1-0.2,1.8-0.7,2.4c-0.5,0.6-1.1,0.9-1.8,0.9c-0.3,0-0.6,0-0.8-0.1c-0.2-0.1-0.5-0.2-0.7-0.3v2.5h-1v-8.2h1
		V66c0.3-0.2,0.5-0.4,0.8-0.6c0.3-0.2,0.6-0.2,1-0.2c0.7,0,1.2,0.3,1.6,0.8S187.5,67.3,187.5,68.2z M186.5,68.3
		c0-0.7-0.1-1.2-0.3-1.6s-0.6-0.6-1.1-0.6c-0.3,0-0.6,0.1-0.8,0.2s-0.5,0.3-0.8,0.5v3.4c0.3,0.1,0.5,0.2,0.7,0.3
		c0.2,0,0.4,0.1,0.6,0.1c0.5,0,0.9-0.2,1.2-0.6S186.5,69.1,186.5,68.3z"/>
	<path d="M191.8,66.4L191.8,66.4c-0.1,0-0.2,0-0.3,0c-0.1,0-0.2,0-0.3,0c-0.3,0-0.5,0.1-0.8,0.2c-0.3,0.1-0.5,0.3-0.8,0.5v4.3h-1v-6
		h1v0.9c0.4-0.3,0.7-0.6,1-0.7c0.3-0.1,0.5-0.2,0.8-0.2c0.1,0,0.2,0,0.2,0c0.1,0,0.1,0,0.2,0V66.4z"/>
	<path d="M193.7,64.4h-1.2v-1h1.2V64.4z M193.6,71.4h-1v-6h1V71.4z"/>
	<path d="M199.8,71.4h-1v-3.4c0-0.3,0-0.5,0-0.8c0-0.2-0.1-0.4-0.2-0.6c-0.1-0.2-0.2-0.3-0.3-0.3s-0.3-0.1-0.6-0.1
		c-0.3,0-0.5,0.1-0.8,0.2c-0.3,0.1-0.5,0.3-0.8,0.5v4.5h-1v-6h1V66c0.3-0.3,0.6-0.5,0.9-0.6s0.6-0.2,0.9-0.2c0.6,0,1.1,0.2,1.4,0.6
		c0.3,0.4,0.5,1,0.5,1.7V71.4z"/>
	<path d="M203,71.5c-0.6,0-1-0.2-1.3-0.5s-0.5-0.8-0.5-1.5v-3.3h-0.7v-0.8h0.7v-1.7h1v1.7h1.9v0.8h-1.9v2.9c0,0.3,0,0.5,0,0.7
		c0,0.2,0.1,0.3,0.1,0.5c0.1,0.1,0.2,0.2,0.3,0.3c0.1,0.1,0.3,0.1,0.6,0.1c0.2,0,0.3,0,0.5-0.1c0.2,0,0.3-0.1,0.3-0.1h0.1v0.9
		c-0.2,0.1-0.4,0.1-0.6,0.1S203.2,71.5,203,71.5z"/>
	<path d="M213,65.4l-3.2,8.2h-1.1l1.1-2.5l-2.2-5.7h1.1l1.6,4.4l1.6-4.4H213z"/>
	<path d="M218.6,68.4c0,1-0.2,1.8-0.7,2.3c-0.5,0.5-1.1,0.8-1.9,0.8c-0.8,0-1.5-0.3-2-0.9c-0.5-0.6-0.7-1.3-0.7-2.3
		c0-1,0.2-1.8,0.7-2.3c0.5-0.6,1.1-0.8,1.9-0.8c0.8,0,1.5,0.3,1.9,0.8C218.4,66.6,218.6,67.4,218.6,68.4z M217.6,68.4
		c0-0.8-0.1-1.4-0.4-1.7s-0.7-0.6-1.2-0.6c-0.5,0-0.9,0.2-1.2,0.6c-0.3,0.4-0.4,1-0.4,1.7c0,0.8,0.1,1.3,0.4,1.7
		c0.3,0.4,0.7,0.6,1.2,0.6c0.5,0,0.9-0.2,1.2-0.6C217.5,69.7,217.6,69.1,217.6,68.4z"/>
	<path d="M224.4,71.4h-1v-0.7c-0.3,0.3-0.6,0.5-0.9,0.6s-0.6,0.2-0.9,0.2c-0.3,0-0.5,0-0.7-0.1c-0.2-0.1-0.4-0.2-0.6-0.4
		c-0.2-0.2-0.3-0.4-0.4-0.7s-0.1-0.6-0.1-1v-3.9h1v3.4c0,0.3,0,0.6,0,0.8c0,0.2,0.1,0.4,0.2,0.6c0.1,0.2,0.2,0.3,0.3,0.3
		s0.3,0.1,0.6,0.1c0.2,0,0.5-0.1,0.8-0.2c0.3-0.1,0.5-0.3,0.8-0.5v-4.5h1V71.4z"/>
	<path d="M229,66.4L229,66.4c-0.1,0-0.2,0-0.3,0c-0.1,0-0.2,0-0.3,0c-0.3,0-0.5,0.1-0.8,0.2c-0.3,0.1-0.5,0.3-0.8,0.5v4.3h-1v-6h1
		v0.9c0.4-0.3,0.7-0.6,1-0.7c0.3-0.1,0.5-0.2,0.8-0.2c0.1,0,0.2,0,0.2,0c0.1,0,0.1,0,0.2,0V66.4z"/>
	<path d="M237.8,71.4h-1v-0.6c-0.2,0.1-0.3,0.2-0.4,0.3s-0.2,0.2-0.4,0.2c-0.1,0.1-0.3,0.1-0.4,0.2c-0.2,0-0.3,0.1-0.5,0.1
		c-0.3,0-0.6-0.1-0.9-0.2c-0.3-0.1-0.5-0.3-0.7-0.6c-0.2-0.3-0.3-0.6-0.5-1s-0.2-0.8-0.2-1.3c0-0.5,0.1-1,0.2-1.4
		c0.1-0.4,0.3-0.7,0.6-1c0.2-0.3,0.5-0.5,0.8-0.6s0.6-0.2,1-0.2c0.3,0,0.6,0,0.8,0.1c0.2,0.1,0.5,0.2,0.7,0.3V63h1V71.4z
		 M236.8,69.9v-3.5c-0.3-0.1-0.5-0.2-0.7-0.3c-0.2,0-0.4-0.1-0.6-0.1c-0.5,0-0.9,0.2-1.2,0.6c-0.3,0.4-0.4,0.9-0.4,1.7
		c0,0.7,0.1,1.2,0.3,1.6s0.6,0.6,1.1,0.6c0.3,0,0.5-0.1,0.8-0.2C236.3,70.3,236.6,70.1,236.8,69.9z"/>
	<path d="M242.5,66.4L242.5,66.4c-0.1,0-0.2,0-0.3,0c-0.1,0-0.2,0-0.3,0c-0.3,0-0.5,0.1-0.8,0.2c-0.3,0.1-0.5,0.3-0.8,0.5v4.3h-1v-6
		h1v0.9c0.4-0.3,0.7-0.6,1-0.7c0.3-0.1,0.5-0.2,0.8-0.2c0.1,0,0.2,0,0.2,0c0.1,0,0.1,0,0.2,0V66.4z"/>
	<path d="M245.8,71.5c-1,0-1.7-0.3-2.2-0.8s-0.8-1.3-0.8-2.3c0-1,0.3-1.8,0.8-2.3s1.2-0.9,2-0.9c0.4,0,0.7,0.1,1,0.2
		s0.5,0.3,0.8,0.5s0.4,0.5,0.5,0.8s0.2,0.7,0.2,1.2v0.5h-4.2c0,0.7,0.2,1.2,0.5,1.6c0.4,0.4,0.8,0.6,1.5,0.6c0.2,0,0.4,0,0.7-0.1
		s0.4-0.1,0.6-0.2c0.2-0.1,0.3-0.2,0.5-0.2s0.2-0.1,0.3-0.2h0.1V71c-0.1,0-0.3,0.1-0.4,0.2c-0.2,0.1-0.3,0.1-0.5,0.2
		c-0.2,0.1-0.4,0.1-0.5,0.1S246.1,71.5,245.8,71.5z M247,67.7c0-0.3,0-0.5-0.1-0.7c-0.1-0.2-0.1-0.4-0.2-0.5
		c-0.1-0.2-0.3-0.3-0.5-0.3c-0.2-0.1-0.4-0.1-0.7-0.1c-0.3,0-0.5,0-0.7,0.1c-0.2,0.1-0.4,0.2-0.5,0.4c-0.2,0.2-0.3,0.3-0.3,0.5
		s-0.1,0.4-0.2,0.7H247z"/>
	<path d="M252.4,70.7c-0.1,0.1-0.2,0.1-0.3,0.3s-0.3,0.2-0.4,0.3c-0.2,0.1-0.4,0.2-0.5,0.2c-0.2,0-0.4,0.1-0.7,0.1
		c-0.2,0-0.5,0-0.7-0.1c-0.2-0.1-0.4-0.2-0.6-0.4c-0.2-0.2-0.3-0.4-0.4-0.6c-0.1-0.2-0.1-0.5-0.1-0.8c0-0.4,0.1-0.8,0.3-1.1
		c0.2-0.3,0.5-0.5,0.8-0.7c0.3-0.2,0.7-0.3,1.2-0.3c0.5-0.1,1-0.1,1.5-0.1v-0.2c0-0.2,0-0.4-0.1-0.6c-0.1-0.1-0.2-0.3-0.3-0.3
		c-0.1-0.1-0.3-0.1-0.5-0.2c-0.2,0-0.4,0-0.6,0c-0.2,0-0.5,0-0.8,0.1c-0.3,0.1-0.6,0.2-0.9,0.3h-0.1v-1c0.2-0.1,0.5-0.1,0.8-0.2
		s0.7-0.1,1-0.1c0.4,0,0.8,0,1,0.1s0.5,0.2,0.8,0.3c0.2,0.2,0.4,0.4,0.5,0.6s0.2,0.6,0.2,1v4.1h-1V70.7z M252.4,69.9v-1.7
		c-0.2,0-0.5,0.1-0.9,0.1c-0.4,0-0.7,0.1-0.9,0.2c-0.3,0.1-0.5,0.2-0.7,0.4c-0.2,0.2-0.3,0.4-0.3,0.7c0,0.3,0.1,0.6,0.3,0.8
		c0.2,0.2,0.5,0.3,0.8,0.3c0.3,0,0.6-0.1,0.9-0.2S252.1,70.1,252.4,69.9z"/>
	<path d="M261.6,71.4v-3.5c0-0.3,0-0.5,0-0.8s-0.1-0.4-0.1-0.5c-0.1-0.1-0.2-0.2-0.3-0.3s-0.3-0.1-0.5-0.1c-0.2,0-0.4,0.1-0.7,0.2
		s-0.5,0.3-0.7,0.6c0,0.1,0,0.1,0,0.2c0,0.1,0,0.2,0,0.3v3.9h-1v-3.5c0-0.3,0-0.5,0-0.8s-0.1-0.4-0.1-0.5c-0.1-0.1-0.2-0.2-0.3-0.3
		s-0.3-0.1-0.5-0.1c-0.2,0-0.4,0.1-0.7,0.2c-0.2,0.1-0.5,0.3-0.7,0.5v4.5h-1v-6h1V66c0.3-0.3,0.5-0.5,0.8-0.6
		c0.3-0.1,0.5-0.2,0.9-0.2c0.4,0,0.7,0.1,0.9,0.2c0.3,0.2,0.5,0.4,0.6,0.8c0.3-0.3,0.6-0.6,0.9-0.8c0.3-0.2,0.6-0.3,0.9-0.3
		c0.3,0,0.5,0,0.7,0.1c0.2,0.1,0.4,0.2,0.6,0.4c0.2,0.2,0.3,0.4,0.4,0.7s0.1,0.6,0.1,1v3.9H261.6z"/>
	<path d="M265.6,71.4h-1.3v-1.5h1.3V71.4z"/>
</g>
</svg>
